<svg xmlns="http://www.w3.org/2000/svg" xmlns:xlink="http://www.w3.org/1999/xlink" width="1080" zoomAndPan="magnify" viewBox="0 0 810 1439.999935" height="1920" preserveAspectRatio="xMidYMid meet" version="1.0"><defs><clipPath id="id1"><path d="M 38.875 351.53125 L 795.625 351.53125 L 795.625 1108.28125 L 38.875 1108.28125 Z M 38.875 351.53125 " clip-rule="nonzero"/></clipPath><clipPath id="id2"><path d="M 351.929688 773.199219 L 795.929688 773.199219 L 795.929688 1217.199219 L 351.929688 1217.199219 Z M 351.929688 773.199219 " clip-rule="nonzero"/></clipPath></defs><g clip-path="url(#id1)"><path fill="#a39dab" d="M 417.25 351.53125 C 208.269531 351.53125 38.875 520.921875 38.875 729.90625 C 38.875 938.953125 208.269531 1108.28125 417.25 1108.28125 C 626.300781 1108.28125 795.625 938.886719 795.625 729.90625 C 795.625 520.921875 626.101562 351.53125 417.25 351.53125 Z M 606.4375 729.90625 C 606.4375 834.332031 521.675781 919.09375 417.253906 919.09375 C 312.828125 919.09375 228.066406 834.332031 228.066406 729.90625 C 228.066406 625.480469 312.828125 540.71875 417.253906 540.71875 C 521.675781 540.71875 606.4375 625.480469 606.4375 729.90625 Z M 606.4375 729.90625 " fill-opacity="1" fill-rule="nonzero"/></g><g clip-path="url(#id2)"><path fill="#d5dfe8" d="M 573.929688 773.199219 C 451.316406 773.199219 351.929688 872.585938 351.929688 995.199219 C 351.929688 1117.855469 451.316406 1217.199219 573.929688 1217.199219 C 696.582031 1217.199219 795.929688 1117.816406 795.929688 995.199219 C 795.929688 872.585938 696.464844 773.199219 573.929688 773.199219 Z M 684.929688 995.199219 C 684.929688 1056.46875 635.199219 1106.199219 573.929688 1106.199219 C 512.660156 1106.199219 462.929688 1056.46875 462.929688 995.199219 C 462.929688 933.933594 512.660156 884.199219 573.929688 884.199219 C 635.199219 884.199219 684.929688 933.933594 684.929688 995.199219 Z M 684.929688 995.199219 " fill-opacity="1" fill-rule="nonzero"/></g></svg>